<svg xmlns="http://www.w3.org/2000/svg" width="618" height="99" fill="none" viewBox="0 0 618 99"><path fill="#000" d="M29.07 94.824q8.705 3.712 18.944 3.712 10.24 0 18.304-3.457 8.193-3.455 13.824-9.087 5.632-5.76 8.064-12.544L72.59 66.152q-2.687 7.167-9.088 11.903-6.4 4.608-15.488 4.608-8.96 0-15.872-4.224-6.783-4.223-10.624-11.647-3.711-7.552-3.712-17.537 0-9.983 3.712-17.408 3.84-7.424 10.624-11.647 6.913-4.224 15.872-4.224 9.09 0 15.488 4.736 6.4 4.608 9.088 11.775l15.616-7.296q-2.43-6.783-8.064-12.415-5.631-5.76-13.824-9.216Q58.254.104 48.014.104q-10.239 0-18.944 3.712-8.704 3.583-15.232 10.24-6.399 6.528-9.984 15.616Q.398 38.63.398 49.255q0 10.624 3.584 19.585 3.585 8.96 9.984 15.615A47.2 47.2 0 0 0 29.07 94.824"/><path fill="#000" fill-rule="evenodd" d="M149.315 98.536q-10.495 0-19.584-3.713-9.087-3.711-15.872-10.367-6.784-6.656-10.624-15.617-3.712-9.087-3.712-19.583 0-10.624 3.712-19.584 3.713-8.961 10.496-15.616 6.785-6.657 15.872-10.24Q138.692.104 149.315.104q10.625 0 19.712 3.712 9.089 3.711 15.872 10.368 6.785 6.527 10.496 15.488 3.84 8.959 3.84 19.583 0 10.497-3.84 19.585-3.84 8.96-10.624 15.615-6.783 6.657-15.872 10.368-8.96 3.713-19.584 3.713m0-15.873q7.04 0 12.928-2.431 5.889-2.56 10.24-7.04 4.48-4.48 6.784-10.624 2.433-6.144 2.432-13.312 0-7.17-2.432-13.184-2.304-6.145-6.784-10.625a29.3 29.3 0 0 0-10.24-7.04q-5.887-2.43-12.928-2.431-6.911 0-12.8 2.431a30.6 30.6 0 0 0-10.368 7.04q-4.351 4.48-6.784 10.625-2.432 6.016-2.432 13.183 0 7.169 2.432 13.313 2.433 6.144 6.784 10.624 4.48 4.48 10.368 7.04 5.888 2.431 12.8 2.432" clip-rule="evenodd"/><path fill="#000" d="M504.639 98.536q-10.24 0-18.944-3.713a47.2 47.2 0 0 1-15.104-10.367q-6.399-6.656-9.984-15.617-3.584-8.959-3.584-19.583 0-10.624 3.456-19.584 3.585-9.09 9.984-15.616 6.528-6.657 15.232-10.24Q494.4.104 504.639.104q10.24 0 18.304 3.456 8.193 3.456 13.824 9.215 5.632 5.633 8.064 12.417l-15.616 7.295q-2.688-7.167-9.088-11.776-6.4-4.735-15.488-4.735-8.96 0-15.872 4.224-6.784 4.223-10.624 11.648-3.712 7.424-3.712 17.408 0 9.982 3.712 17.536 3.84 7.424 10.624 11.647 6.912 4.225 15.872 4.225 9.089 0 15.488-4.609 6.4-4.736 9.088-11.904l15.616 7.297q-2.432 6.783-8.064 12.544-5.631 5.631-13.824 9.087-8.064 3.457-18.304 3.457M575.86 97V17h-24.704V1.64h66.56V17h-24.32v80z"/><path fill="#000" fill-rule="evenodd" d="M397.677 1.64 364.781 97h18.816l6.912-20.48h36.864L434.157 97h18.944L420.205 1.64zm24.704 59.52h-26.88l13.44-40.211z" clip-rule="evenodd"/><path fill="#000" d="M326.485 97V17h-24.704V1.64h66.56V17h-24.32v80zM214.715 1.64V97h17.408V34.64L277.435 97h13.696V1.64h-17.408v61.178l-45.44-61.177z"/></svg>