<svg xmlns="http://www.w3.org/2000/svg" width="641.992" height="200" class="icon" viewBox="0 0 3287 1024"><path fill="#999" d="M3201.603 472.307a34.734 34.734 0 0 1 0 6.766 187.286 187.286 0 0 1-112.177 150.105c-57.385 24.622-106.209 17.612-144.123 1.116a179.463 179.463 0 0 1-99.457-98.391 185.446 185.446 0 0 1 329.975-167.63 32.332 32.332 0 0 1 3.033 5.265l.147.284h-.05a.142.142 0 0 1 .05.127 6.316 6.316 0 0 1 .293.89c.245.49.587.88.783 1.37a28.668 28.668 0 0 1-14.92 37.64c-.392.161-.784.22-1.175.367l.049.083-184.923 79.82a21.868 21.868 0 0 1-26.564-10.616 21.648 21.648 0 0 1 10.665-26.383l152.83-65.956-.049-.068a11.678 11.678 0 0 0 1.419-.49 12.67 12.67 0 0 0 6.8-16.237l-.294-.587.147-.063-.587-.754a12.607 12.607 0 0 0-2.055-2.568c-22.406-27.67-52.297-43.589-90.553-47.517a138.741 138.741 0 1 0 122.206 163.363s1.467-6.433 2.543-14.442c.196-1.688.49-3.14.734-4.51a23.135 23.135 0 0 1 44.078-5.45 22.797 22.797 0 0 1 1.175 14.466m-495.672-47.341 116.335 174.913a28.54 28.54 0 0 1-7.925 39.587l-3.18 2.109a28.54 28.54 0 0 1-39.577-7.96l-110.122-165.49-38.11 37.038c-.245.215-.49.352-.734.557v111.678a28.536 28.536 0 0 1-28.521 28.55h-3.816a28.58 28.58 0 0 1-28.57-28.55V157.591a28.58 28.58 0 0 1 28.57-28.556h3.816a28.536 28.536 0 0 1 28.521 28.556v263.344l143.878-139.7a28.54 28.54 0 0 1 40.36.592l2.69 2.734a28.546 28.546 0 0 1-.635 40.375zm-252.63-219.902a37.557 37.557 0 1 1 37.523-37.557 37.567 37.567 0 0 1-37.523 37.557m-130.18 440.884h-3.767a28.546 28.546 0 0 1-28.57-28.55V157.591a28.546 28.546 0 0 1 28.57-28.556h3.767a28.546 28.546 0 0 1 28.57 28.556v459.807a28.546 28.546 0 0 1-28.57 28.55M2200.76 414.937a259.885 259.885 0 0 1-155.8 208.292 257.121 257.121 0 0 1-241.985-20.909c0 1.091-34.03-22.503-53.97-47.033-8.63-10.464-14.833-18.849-19.803-26.217-.034.088-.049.181-.083.274-.436.979-.876 1.991-1.33 2.97a184.85 184.85 0 0 1-72.835 82.29q-48.628 29.735-121.907 29.73t-122.348-29.73a183.304 183.304 0 0 1-73.284-82.97q-24.201-53.231-24.196-160.174V161.51a32.254 32.254 0 1 1 64.507 0v61.91l.03 140.653q0 85.73 9.236 117.999a131.506 131.506 0 0 0 52.835 72.829q38.995 26.73 93.01 26.735t91.62-26.045a133.247 133.247 0 0 0 51.93-68.446q8.453-25.322 9.53-100.044s.112-.235.21-.397a257.4 257.4 0 0 1 478.881-131.109 43.604 43.604 0 0 1 4.168 7.309l.216.386h-.035l.084.176c.17.402.23.817.386 1.223.333.656.773 1.228 1.067 1.913a39.739 39.739 0 0 1-20.733 52.239c-.524.225-1.077.303-1.605.489l.044.112-256.69 110.714a27.944 27.944 0 1 1-22.015-51.367l212.108-91.483-.034-.088a15.9 15.9 0 0 0 1.957-.695 17.494 17.494 0 0 0 9.417-22.533c-.122-.284-.269-.543-.396-.817l.2-.088-.816-1.052a16.883 16.883 0 0 0-2.813-3.561c-31.06-38.418-72.585-60.511-125.689-65.98a192.56 192.56 0 1 0 169.576 226.823s2.055-8.923 3.527-20.057c.289-2.334.646-4.33 1.047-6.213a32.039 32.039 0 1 1 62.796 12.484 54.69 54.69 0 0 1-.015 9.408m251.025-170.452h3.816a28.58 28.58 0 0 1 28.57 28.555v344.358a28.58 28.58 0 0 1-28.57 28.55h-3.816a28.58 28.58 0 0 1-28.57-28.55V273.04a28.58 28.58 0 0 1 28.57-28.555m-887.38 622.99h-.322a55.379 55.379 0 0 1-55.282-52.435 10.21 10.21 0 0 1-.185-1.957V692.497a10.23 10.23 0 0 1 10.229-10.23h1.365a10.23 10.23 0 0 1 10.224 10.23v120.61c0 .28 0 .564-.039.842a33.722 33.722 0 0 0 33.663 31.604h.367v21.926zm-101.575-.07h-1.36a10.234 10.234 0 0 1-10.234-10.229v-69.14h-.035a33.722 33.722 0 0 0-67.374-1.56c0 .278.039.562.039.845v69.997a10.23 10.23 0 0 1-10.21 10.21h-1.36a10.23 10.23 0 0 1-10.23-10.23v-69.977a10.225 10.225 0 0 1 .187-1.956 55.379 55.379 0 0 1 110.562-.289 10.543 10.543 0 0 1 .244 2.236v69.855a10.23 10.23 0 0 1-10.229 10.239M1328.628 709.39a13.458 13.458 0 1 1 13.453-13.459 13.458 13.458 0 0 1-13.434 13.459zm-.538 23.76h1.36a10.23 10.23 0 0 1 10.234 10.225v113.723a10.234 10.234 0 0 1-10.234 10.23h-1.36a10.225 10.225 0 0 1-10.225-10.23V743.375a10.225 10.225 0 0 1 10.225-10.224m235.473 112.363a10.983 10.983 0 1 1-10.983 10.983 10.983 10.983 0 0 1 10.983-10.983m-83.166-101.056v-1.365a10.234 10.234 0 0 1 10.234-10.23h56.749a10.23 10.23 0 0 1 10.23 10.23v1.365a10.23 10.23 0 0 1-10.23 10.229h-56.749a10.234 10.234 0 0 1-10.24-10.225zm138.085 117.166a63.833 63.833 0 0 1-15.919-9.588 66.827 66.827 0 1 1 92.853-95.397 11.408 11.408 0 0 1 1.4 1.683l.068.088.029.04.093.146c.142.186.279.386.42.592a10.318 10.318 0 0 1-2.935 14.29c-.132.083-.259.166-.396.244l-60.609 39.861a5.083 5.083 0 0 1-1.33.607 7.827 7.827 0 0 1-3.723.93 7.92 7.92 0 0 1-5.934-13.16 5.562 5.562 0 0 1 1.511-1.531l50.106-32.954a3.767 3.767 0 0 0 .489-.264 4.545 4.545 0 0 0 1.39-6.189l-.138-.186.05-.034-.255-.23a4.188 4.188 0 0 0-.886-.782 19.818 19.818 0 0 0-2.412-2.085 46.51 46.51 0 0 0-31.177-8.11 49.998 49.998 0 1 0 53.588 50.344s.123-2.377 0-5.283a16.457 16.457 0 0 1-.03-1.527 8.331 8.331 0 1 1 16.664.177 15.019 15.019 0 0 1 .396 2.475 67.482 67.482 0 0 1-30.454 60.28 66.739 66.739 0 0 1-62.864 5.568zm170.736-128.433h-.318a55.389 55.389 0 0 0-55.281 52.434 10.636 10.636 0 0 0-.186 1.957v69.674a10.234 10.234 0 0 0 10.234 10.23h1.36a10.23 10.23 0 0 0 10.215-10.23v-69.689c0-.289 0-.567-.04-.846a33.726 33.726 0 0 1 33.659-31.603h.367V733.19zm-.842 21.956a10.983 10.983 0 1 0-10.983-10.983 10.983 10.983 0 0 0 10.998 10.988zm114.833-72.893h-.327a55.374 55.374 0 0 0-55.281 52.434 9.784 9.784 0 0 0-.196 1.957v120.61a10.234 10.234 0 0 0 10.234 10.23h1.365a10.23 10.23 0 0 0 10.225-10.23v-120.6c0-.289 0-.568-.04-.852a33.722 33.722 0 0 1 33.654-31.598h.371v-21.927zm-.841 21.956a10.983 10.983 0 1 0-10.988-10.978 10.983 10.983 0 0 0 11.003 11.002zm-83.729 40.228v-1.365a10.23 10.23 0 0 1 10.23-10.23h56.773a10.23 10.23 0 0 1 10.23 10.23v1.365a10.23 10.23 0 0 1-10.23 10.23h-56.759a10.23 10.23 0 0 1-10.23-10.206zm154.376 122.602a66.778 66.778 0 0 0 49.876-22.294v12.363a10.23 10.23 0 0 0 10.224 10.23h1.365a10.23 10.23 0 0 0 10.23-10.23v-101.81a10.225 10.225 0 0 0-10.23-10.225h-1.365a10.225 10.225 0 0 0-10.224 10.225v.141a66.944 66.944 0 1 0-49.876 111.6m0-117.539a50.115 50.115 0 1 1-50.11 50.11 50.11 50.11 0 0 1 50.125-50.12zm204.169 20.508a8.204 8.204 0 0 1-6.82-3.65 50.389 50.389 0 1 0 1.688 65.257l.206.117a8.2 8.2 0 1 1 12.352 10.274 66.704 66.704 0 1 1-.264-84.512l-.098.074a8.194 8.194 0 0 1-7.05 12.43zm69.258 91.63a63.735 63.735 0 0 1-15.924-9.589 66.822 66.822 0 1 1 92.833-95.396 11.252 11.252 0 0 1 1.419 1.683c0 .029.049.058.049.088a.342.342 0 0 1 .049.039c.049.044.049.098.098.147a3.263 3.263 0 0 1 .391.591 10.332 10.332 0 0 1-2.935 14.29c-.147.084-.245.167-.392.245l-60.608 39.861a5.122 5.122 0 0 1-1.326.607 7.915 7.915 0 0 1-9.657-12.23 5.43 5.43 0 0 1 1.511-1.532l50.12-32.953h-.049a2.304 2.304 0 0 0 .49-.264 4.53 4.53 0 0 0 1.37-6.189.347.347 0 0 0-.098-.186l.049-.034-.294-.23a3.464 3.464 0 0 0-.88-.783 17.426 17.426 0 0 0-2.398-2.084 46.524 46.524 0 0 0-31.177-8.111 50.003 50.003 0 1 0 53.583 50.345 52.654 52.654 0 0 0 0-5.284c-.049-.557-.049-1.061-.049-1.526a8.4 8.4 0 0 1 3.767-7.186 8.317 8.317 0 0 1 11.546 2.377 8.092 8.092 0 0 1 1.37 4.985 13.61 13.61 0 0 1 .39 2.476 67.512 67.512 0 0 1-30.428 60.28 66.763 66.763 0 0 1-62.805 5.553zm266.04 5.381a66.675 66.675 0 0 0 49.85-22.293v12.362a10.24 10.24 0 0 0 10.225 10.23h1.37a10.21 10.21 0 0 0 10.224-10.23V692.39a10.205 10.205 0 0 0-10.224-10.23h-1.37a10.234 10.234 0 0 0-10.225 10.23v63.054a66.944 66.944 0 1 0-49.836 111.595zm0-117.538a50.115 50.115 0 1 1-50.096 50.11 50.125 50.125 0 0 1 50.11-50.1zm135.756 112.137a63.857 63.857 0 0 1-15.948-9.588 66.827 66.827 0 1 1 92.853-95.397 11.252 11.252 0 0 1 1.418 1.683c0 .03.05.059.05.088s0 0 .048.04.049.097.049.146c.147.186.294.386.44.592a10.332 10.332 0 0 1-2.935 14.29 3.248 3.248 0 0 0-.391.244l-60.614 39.862a4.946 4.946 0 0 1-1.32.606 7.935 7.935 0 0 1-9.687-12.23 5.87 5.87 0 0 1 1.516-1.531l50.096-32.954a4.79 4.79 0 0 0 .489-.264 4.579 4.579 0 0 0 1.37-6.189l-.147-.185.049-.035a1.013 1.013 0 0 0-.245-.23 3.464 3.464 0 0 0-.88-.782 20.87 20.87 0 0 0-2.397-2.084 46.505 46.505 0 0 0-31.163-8.112 49.998 49.998 0 1 0 53.569 50.345s.097-2.377 0-5.283c-.05-.558-.05-1.062-.05-1.526a8.35 8.35 0 0 1 15.313-4.81 8.092 8.092 0 0 1 1.37 4.986 13.61 13.61 0 0 1 .391 2.475 67.428 67.428 0 0 1-30.478 60.281 66.65 66.65 0 0 1-62.751 5.572zm206.008-83.22a8.772 8.772 0 0 1-8.757-8.683c-.391-12.094-16.095-21.829-35.419-21.829-19.617 0-35.468 9.975-35.468 22.279s15.85 22.283 35.468 22.283h.342v.23c29.06.113 52.591 16.81 52.591 37.391 0 20.655-23.678 37.4-52.884 37.4-28.326 0-51.416-15.694-52.835-35.433a7 7 0 0 1-.147-1.439 8.757 8.757 0 0 1 17.514-.073c.391 12.093 16.095 21.829 35.468 21.829 19.568 0 35.419-9.975 35.419-22.284s-15.85-22.279-35.42-22.279h-.342v-.21c-29.108-.118-52.639-16.81-52.639-37.396s23.678-37.395 52.933-37.395c28.277 0 51.367 15.694 52.786 35.429a7.079 7.079 0 0 1 .147 1.467 8.752 8.752 0 0 1-8.742 8.723zm42.562-69.018a13.458 13.458 0 1 1 13.453-13.458 13.453 13.453 0 0 1-13.439 13.468zm-.539 23.932h1.37a10.24 10.24 0 0 1 10.225 10.23v113.546a10.24 10.24 0 0 1-10.225 10.23h-1.37a10.21 10.21 0 0 1-10.224-10.23V743.542a10.21 10.21 0 0 1 10.24-10.22zm99.849-.073a66.86 66.86 0 0 1 49.9 22.293v-12.367a10.205 10.205 0 0 1 10.224-10.225h1.37a10.234 10.234 0 0 1 10.225 10.225v138.986a10.24 10.24 0 0 1-10.225 10.23h-1.37a10.21 10.21 0 0 1-10.224-10.23v-37.318a66.944 66.944 0 1 1-49.885-111.584zm.049 117.543a50.115 50.115 0 1 0-50.144-50.115 50.125 50.125 0 0 0 50.159 50.125zm-50.242 23.688a10.988 10.988 0 0 1 11.007 10.905c.49 15.195 20.205 27.425 44.518 27.425 24.559 0 44.519-12.534 44.519-27.993a16.252 16.252 0 0 1 .49-2.578l21.133-1.908a34.147 34.147 0 0 1 .294 4.486c0 25.928-29.744 46.965-66.436 46.965-35.565 0-64.576-19.71-66.386-44.519a11.022 11.022 0 0 1 10.875-12.773zm244.02-7.074h-1.37a10.24 10.24 0 0 1-10.225-10.23v-69.13h-.049a33.717 33.717 0 0 0-67.364-1.56 4.892 4.892 0 0 1 .048.845v69.997a10.244 10.244 0 0 1-10.224 10.23h-1.37a10.244 10.244 0 0 1-10.224-10.23v-69.997a8.566 8.566 0 0 1 .195-1.956 55.37 55.37 0 0 1 110.563-.289 11.218 11.218 0 0 1 .244 2.236v69.855a10.21 10.21 0 0 1-10.21 10.239zm-2174.453-222.95L810.296 849.624c-.21.21-.455.342-.665.543l.054.059a437.103 437.103 0 0 1-618.151-618.156v.03c.21-.211.342-.46.547-.666L397.272 26.242A89.595 89.595 0 0 1 523.98 152.948L318.788 358.144c-.21.205-.46.338-.67.543l.141.137c-.489.46-.978.841-1.467 1.306a257.845 257.845 0 0 0 364.65 364.65c.465-.489.841-.978 1.301-1.467l.25.25c.205-.211.337-.46.543-.666L888.78 517.74a89.6 89.6 0 1 1 126.71 126.707M903.095 138.649a89.6 89.6 0 0 1 0 126.707L564.559 603.89a89.595 89.595 0 0 1-126.706-126.707l338.536-338.536a89.6 89.6 0 0 1 126.706-.014z"/></svg>